<?xml version="1.0" encoding="UTF-8"?>
<svg xmlns="http://www.w3.org/2000/svg" xmlns:xlink="http://www.w3.org/1999/xlink" width="20px" height="20px" viewBox="0 0 20 20" version="1.1">
<g id="surface1">
<path style=" stroke:none;fill-rule:evenodd;fill:rgb(45.882353%,54.901961%,63.921569%);fill-opacity:1;" d="M 10.625 6.144531 L 2.5 14.269531 L 2.5 17.5 L 5.730469 17.5 L 13.855469 9.375 Z M 12.394531 4.375 L 15.625 7.605469 L 16.980469 6.25 L 13.75 3.019531 Z M 1.25 20 C 0.558594 20 0 19.441406 0 18.75 L 0 13.75 C 0 13.417969 0.132812 13.101562 0.367188 12.867188 L 12.867188 0.367188 C 13.355469 -0.121094 14.144531 -0.121094 14.632812 0.367188 L 19.632812 5.367188 C 20.121094 5.855469 20.121094 6.644531 19.632812 7.132812 L 7.132812 19.632812 C 6.898438 19.867188 6.582031 20 6.25 20 Z M 1.25 20 "/>
</g>
</svg>
